<?xml version="1.0" standalone="no"?>
<!DOCTYPE svg PUBLIC "-//W3C//DTD SVG 20010904//EN"
 "http://www.w3.org/TR/2001/REC-SVG-20010904/DTD/svg10.dtd">
<svg version="1.0" xmlns="http://www.w3.org/2000/svg"
 width="225.000000pt" height="225.000000pt" viewBox="0 0 225.000000 225.000000"
 preserveAspectRatio="xMidYMid meet">

<g transform="translate(0.000000,225.000000) scale(0.100000,-0.100000)"
fill="#000000" stroke="none">
<path d="M1112 1658 c-6 -14 -16 -55 -23 -90 -7 -35 -14 -65 -15 -67 -2 -2
-15 6 -31 16 -15 11 -39 26 -53 33 l-25 13 18 -24 c27 -37 77 -142 77 -161 0
-10 -4 -18 -10 -18 -5 0 -10 -11 -10 -24 0 -29 -36 -68 -88 -95 -104 -53 -159
-231 -104 -338 22 -43 69 -85 112 -101 23 -9 25 -14 26 -81 0 -71 0 -71 -27
-71 -31 0 -44 -23 -23 -41 13 -11 79 -7 91 5 3 3 8 39 12 81 l6 77 85 0 85 0
8 -80 9 -80 34 -7 c19 -3 44 -3 55 0 29 10 20 39 -14 43 -25 3 -27 7 -27 50 0
26 -3 57 -6 68 -5 18 2 25 40 44 100 48 141 145 112 260 -21 84 -58 136 -125
175 -61 36 -81 59 -81 92 0 13 -4 23 -10 23 -15 0 -12 63 6 106 9 21 27 53 41
71 33 43 16 42 -41 -1 -41 -32 -45 -33 -49 -15 -4 15 -4 14 -4 -4 1 -12 -8
-38 -19 -55 -16 -26 -23 -30 -31 -20 -13 15 -22 99 -11 92 5 -3 8 16 9 43 0
26 4 57 8 68 6 15 11 7 24 -40 11 -41 15 -47 11 -20 -3 22 -12 53 -19 70 l-13
30 -10 -27z m120 -135 c-27 -38 -52 -100 -60 -147 -10 -54 -28 -56 -35 -5 -7
52 9 85 65 140 48 46 57 50 30 12z m-177 -30 c40 -39 74 -103 75 -141 0 -20
-2 -21 -20 -10 -11 7 -20 20 -20 28 -1 26 -40 104 -67 133 -40 41 -12 33 32
-10z m25 -153 c17 -9 17 -12 0 -77 l-18 -68 -35 0 c-36 0 -66 -24 -67 -53 0
-20 49 -64 66 -58 12 4 12 2 4 -14 -12 -23 -23 -25 -49 -8 -20 12 -51 5 -51
-13 0 -7 11 -10 29 -7 42 6 57 -22 28 -50 -20 -18 -26 -20 -47 -9 -23 12 -25
18 -22 66 3 65 49 169 97 222 19 22 35 48 35 59 0 23 4 24 30 10z m130 -25 c5
-13 24 -37 41 -52 48 -42 91 -144 97 -230 l5 -71 -31 -16 c-17 -9 -37 -16 -43
-16 -20 0 -49 32 -49 54 0 20 0 20 16 -2 8 -12 24 -22 35 -22 25 0 59 17 59
31 0 5 -13 3 -30 -6 -27 -14 -30 -14 -49 6 -11 12 -17 28 -14 36 4 9 -1 20
-10 25 -28 15 -20 35 14 35 34 0 59 23 59 55 0 39 -67 76 -86 47 -3 -6 1 -10
12 -9 34 4 43 0 54 -20 16 -30 -4 -60 -40 -60 -31 0 -40 14 -38 65 0 17 -7 61
-16 98 -19 81 -19 77 -6 77 6 0 15 -11 20 -25z m-29 -48 c6 -26 13 -69 15 -95
1 -26 6 -56 9 -68 5 -17 0 -23 -24 -34 -17 -7 -31 -18 -31 -24 0 -6 16 -38 36
-70 34 -57 35 -63 29 -120 -4 -34 -12 -64 -19 -68 -6 -4 -34 -8 -63 -8 -72 0
-83 14 -83 103 1 59 5 79 25 112 30 49 31 62 4 70 -17 6 -20 12 -15 33 4 15 8
45 10 67 1 22 10 65 19 95 15 51 18 55 46 55 28 0 31 -4 42 -48z m-249 -94
c-19 -43 -27 -78 -30 -135 -3 -50 -8 -78 -16 -78 -8 0 -8 -2 0 -8 6 -4 23 -35
36 -69 21 -50 22 -61 9 -54 -27 15 -69 64 -80 94 -16 41 -13 127 5 181 14 41
79 126 97 126 3 0 -6 -26 -21 -57z m432 4 c51 -66 72 -184 45 -254 -11 -30
-53 -79 -80 -93 -12 -7 -11 1 7 36 45 89 42 197 -10 310 -23 49 -23 53 -6 44
11 -6 31 -25 44 -43z m-306 -40 c-3 -29 -6 -32 -38 -32 -33 0 -35 2 -37 33 -1
26 4 35 20 41 35 13 59 -5 55 -42z m-35 -165 c-30 -41 -47 -47 -82 -32 -17 7
-31 19 -31 27 0 10 4 11 19 3 11 -5 27 -10 35 -10 18 0 65 49 67 70 1 8 4 4 6
-9 3 -14 -3 -34 -14 -49z m197 31 c0 -26 -1 -26 -14 -8 -14 20 -12 35 5 35 5
0 9 -12 9 -27z m114 -105 c-19 -56 -52 -94 -88 -102 -26 -6 -28 -5 -22 16 3
13 6 38 6 56 0 29 3 32 23 27 14 -4 34 3 56 20 19 14 36 25 37 25 2 0 -4 -19
-12 -42z m-384 7 c16 -20 44 -19 61 1 12 14 14 14 20 -3 4 -10 8 -39 8 -66 1
-47 1 -47 -26 -41 -33 8 -56 34 -77 87 -15 38 -8 49 14 22z m76 -201 c-3 -26
-6 -55 -6 -64 0 -18 -51 -33 -77 -23 -22 8 -3 23 28 23 29 0 29 1 29 55 0 44
3 55 16 55 14 0 16 -8 10 -46z m234 -13 c0 -49 1 -50 33 -53 17 -2 30 -7 27
-13 -4 -8 -71 -9 -76 -2 -1 1 -4 28 -8 60 -5 47 -4 57 9 57 11 0 15 -12 15
-49z"/>
<path d="M1237 1168 c-18 -10 -23 -43 -8 -52 5 -4 12 0 15 6 5 10 7 10 12 0 5
-10 9 -10 20 -1 20 17 17 28 -6 22 -11 -3 -20 -1 -20 5 0 6 8 12 18 14 15 3
15 4 1 10 -8 3 -23 2 -32 -4z"/>
<path d="M1277 1064 c-4 -4 -7 -11 -7 -16 0 -13 50 -6 53 7 2 12 -36 19 -46 9z"/>
<path d="M1094 1105 c-9 -22 4 -35 35 -35 36 0 62 27 40 41 -22 14 -69 11 -75
-6z"/>
<path d="M990 1159 c0 -5 5 -7 10 -4 6 3 10 2 10 -4 0 -5 -6 -11 -12 -14 -10
-4 -10 -7 0 -18 9 -9 12 -10 12 -1 0 7 5 12 11 12 5 0 7 -5 3 -11 -4 -7 -1
-10 6 -7 20 6 24 28 6 28 -9 0 -16 5 -16 11 0 6 7 8 16 5 8 -3 12 -2 9 4 -8
13 -55 13 -55 -1z"/>
<path d="M1418 1328 c-10 -10 -13 -18 -8 -18 6 0 15 -10 20 -22 6 -17 9 -18 9
-6 1 9 9 22 19 27 15 9 15 10 0 11 -9 0 -18 6 -20 13 -2 9 -8 8 -20 -5z m22
-18 c0 -5 -2 -10 -4 -10 -3 0 -8 5 -11 10 -3 6 -1 10 4 10 6 0 11 -4 11 -10z"/>
<path d="M780 1240 c-13 -13 -13 -17 0 -30 13 -13 17 -13 30 0 13 13 13 17 0
30 -13 13 -17 13 -30 0z m20 -16 c0 -8 -5 -12 -10 -9 -6 4 -8 11 -5 16 9 14
15 11 15 -7z"/>
</g>
</svg>
