<svg width="200" height="200" viewBox="0 0 200 200" xmlns="http://www.w3.org/2000/svg"><g fill="none" fill-rule="evenodd"><path fill="#FFF"><defs><style>.cls-1{fill:#fff;stroke:#000;stroke-miterlimit:10;}</style></defs><g id="Layer_2" data-name="Layer 2"><g id="Layer_1-2" data-name="Layer 1"><path d="M20.4,35.7c3.1-6.9,7.2-15.7,7.2-23.6C27.6,5.2,30.8,0,39.7,0c8.7,0,14.2,8.9,18.1,15.5C59.5,18.4,74.6,49,78.2,57.2c3.3,7.6,8.71,3,8.71,8.7,0,7.31-14.21,7-19.21,7-14.3,0-22.9-.1-22.9-6.3,0-4.8,6.1-3,6.1-6.5,0-4.5-2.5-4.9-18.6-4.9-5.2,0-8.3.2-8.3,5.1,0,3.9,6.4,1.3,6.4,6.5,0,6-10.8,6.1-14.8,6.1C1.3,72.9,0,70.21,0,67c0-4.7,5.4-3.3,8.3-6.9,2.2-2.7,4.3-7.5,5.8-10.7Zm21,7.2c1,0,4,.2,4-1.3s-2.9-6.7-3.7-8.1c-.9-1.6-2.6-5.3-4.8-5.3-2.4,0-4.1,6-4.5,7.1s-2.1,5-2.1,6.2c0,1.7,2.5,1.4,3.6,1.4Z"/><path d="M119.7,43.7c-.6-1.3-1.7-4.3-3.5-4.3-3.1,0-2.1,13.2-2.1,16.5,0,10.7,6.4,5.7,6.4,11.1,0,5.71-10.7,5.9-14.6,5.9-3.5,0-12.6-.3-12.6-5.5,0-5.7,6-1,6.8-9.2A303.4,303.4,0,0,0,101.8,26c0-6-.4-9.1-1.5-11.4-1-2.1-6.7-2.8-6.7-6.9C93.6,2,102.9.6,110.9.6c11.7,0,11.5,2,14.5,7.1,3.5,5.9,9.7,22.3,14.1,23.3,3.1.7,7.2-11.4,10.8-18C155.4,3.6,155.5.6,168.7.6c4.4,0,14.4.3,14.4,6.6,0,4-4.5,4.8-5.5,8.2-.8,2.8-1.5,14.6-1.5,19.1,0,1.5.6,12.5,1,21.8.3,7.3,6.3,5.7,6.3,10.2,0,6.71-13.7,6.4-18.1,6.4-4.1,0-17.8.4-17.8-6,0-3.5,4.5-4.1,5.2-7.3.4-1.7,2.4-18.9-1.1-18.9-3.1,0-6.3,8.8-8.7,13.9-2.2,4.6-5.8,16-9,15.61-1.6-.21-2.4,0-8.4-13.51Z"/><path class="cls-1" d="M21.63,41.2c3.1-6.9,7.2-15.7,7.2-23.6,0-6.9,3.2-12.1,12.1-12.1,8.7,0,14.2,8.9,18.1,15.5,1.7,2.9,16.8,33.5,20.4,41.7,3.3,7.6,8.7,3,8.7,8.7,0,7.31-14.2,7-19.2,7-14.3,0-22.9-.1-22.9-6.3,0-4.8,6.1-3,6.1-6.5,0-4.5-2.5-4.9-18.6-4.9-5.2,0-8.3.2-8.3,5.1,0,3.9,6.4,1.3,6.4,6.5,0,6-10.8,6.1-14.8,6.1-14.3,0-15.6-2.69-15.6-5.9,0-4.7,5.4-3.3,8.3-6.9,2.2-2.7,4.3-7.5,5.8-10.7Zm21,7.2c1,0,4,.2,4-1.3s-2.9-6.7-3.7-8.1c-.9-1.6-2.6-5.3-4.8-5.3-2.4,0-4.1,6-4.5,7.1s-2.1,5-2.1,6.2c0,1.7,2.5,1.4,3.6,1.4Z"/><path class="cls-1" d="M120.93,49.2c-.6-1.3-1.7-4.3-3.5-4.3-3.1,0-2.1,13.2-2.1,16.5,0,10.7,6.4,5.7,6.4,11.1,0,5.71-10.7,5.9-14.6,5.9-3.5,0-12.61-.3-12.61-5.5,0-5.7,6-1,6.81-9.2A303.4,303.4,0,0,0,103,31.5c0-6-.4-9.1-1.5-11.4-1-2.1-6.7-2.8-6.7-6.9,0-5.7,9.3-7.1,17.3-7.1,11.7,0,11.5,2,14.5,7.1,3.5,5.9,9.7,22.3,14.1,23.3,3.1.7,7.2-11.4,10.8-18,5.1-9.4,5.2-12.4,18.4-12.4,4.4,0,14.4.3,14.4,6.6,0,4-4.5,4.8-5.5,8.2-.8,2.8-1.5,14.6-1.5,19.1,0,1.5.6,12.5,1,21.8.3,7.3,6.3,5.7,6.3,10.2,0,6.71-13.7,6.4-18.1,6.4-4.1,0-17.8.4-17.8-6,0-3.5,4.5-4.1,5.2-7.3.4-1.7,2.4-18.9-1.1-18.9-3.1,0-6.3,8.8-8.7,13.9-2.2,4.6-5.8,16-9,15.61-1.6-.21-2.4,0-8.4-13.51Z" fill="#000"/></g></g></svg>