<svg id="Layer_1" data-name="Layer 1" xmlns="http://www.w3.org/2000/svg" xmlns:xlink="http://www.w3.org/1999/xlink" viewBox="0 0 1500 845"><defs><style>.cls-1{fill:#fff;}</style></defs><image width="2000" height="1126" transform="scale(0.75)" xlink:href="../Volvo.jpeg"/><path class="cls-1" d="M82,580.26,97.83,563,82,543.7c-1.2-1.52-3.44-1.68-6.64-1.68v-8h32.16v8h-2.08c-1.92,0-3.76.16-3.76,1.68,0,1.36,1.44,2.8,7.12,9.76,7.68-8.24,8-8.56,8-9.76,0-1.52-1.84-1.68-3.76-1.68H111v-8h25.93v8c-4.64,0-5.92,0-7.37,1.68l-15.28,16.24,16.16,19.76c1.36,1.76,3,1.76,6.49,1.76v7.92H105v-7.92h1.76c2.08,0,4.08-.16,4.08-1.76,0-1.28-1.68-2.8-7.68-10.08-1.84,1.92-8.16,8.4-8.16,10s2.24,1.84,4.48,1.84h1.84v7.92H75.35v-7.92C77.75,581.38,80.87,581.54,82,580.26Z"/><path class="cls-1" d="M168,532.42a28.76,28.76,0,0,1,16.08,4.64l1.84-3.84h7.68v21.92h-8.32c-2-8.48-5.28-13.92-15-13.92-11.84,0-13.84,11.12-13.84,21,0,10.08,2.64,19.44,14.24,19.44,9.2,0,14.48-4.8,15.2-14.64h8.64c0,15.76-13,24.08-27.12,24.08-17,0-29.84-11.6-29.84-29C137.59,544.42,150.55,532.42,168,532.42Z"/><path class="cls-1" d="M209.59,570.34c3.84,0,7.2,2.24,7.2,6.24a4.24,4.24,0,0,1-2.64,4.32c.64,1,3.28,1.28,4.16,1.28,8.24,0,11.68-5.2,11.68-13a37.62,37.62,0,0,0-.4-5c-2.88,3-7.12,3.84-11,3.84-10.08,0-17.6-6.48-17.6-16.88,0-12.72,10.32-19,21.92-19,18.64,0,23.12,12.72,23.12,29.28,0,14.24-4.48,28.56-26.16,28.56-7.6,0-18.24-2.32-18.24-11.76C201.67,573.3,204.87,570.34,209.59,570.34ZM223,560c3.84,0,5.92-2.32,5.92-9.36,0-4.24,0-10.56-5.76-10.56S217,545.7,217,550.18C217,554.5,217.27,560,223,560Z"/><path class="cls-1" d="M278.55,533c17.52,0,22.32,13.44,22.32,28.24,0,17.92-5.28,29.44-23.52,29.44-19.76,0-22.24-17.12-22.24-30.24C255.11,545.62,260.55,533,278.55,533Zm-6.72,21.12v18.24c0,3.92.8,10.16,6.08,10.16,4.56,0,6.16-3.68,6.16-9.84,0-7.12.16-12.56.16-18.48,0-4.48-.08-12.88-6-12.88C273.27,541.3,271.83,544.66,271.83,554.1Z"/><path class="cls-1" d="M317.11,574.26a7.79,7.79,0,0,1,7.92,7.68,7.92,7.92,0,0,1-7.92,7.84,7.72,7.72,0,0,1-7.68-7.84A7.49,7.49,0,0,1,317.11,574.26Z"/><path class="cls-1" d="M106,626.34a2,2,0,0,0-2,1.76v37.12h15.76c8,0,7-11.84,7.13-15.84H135V673.3H78.55v-7.92h5.84a2.29,2.29,0,0,0,2.32-2.16V628.1a1.92,1.92,0,0,0-1.92-1.76H78.55v-8.16h33.6v8.16Z"/><path class="cls-1" d="M163.91,663.46a2,2,0,0,0,2,1.76h6.16v8.16h-33.6v-8.16h6.24a1.92,1.92,0,0,0,1.92-1.76V628.18a1.92,1.92,0,0,0-1.92-1.76h-6.24v-8.16h33.6v8.16h-6.16a2,2,0,0,0-2,1.76Z"/><path class="cls-1" d="M212,665.22v8.16h-33.6v-8.16h6.24a1.92,1.92,0,0,0,1.92-1.76V628.34a2.29,2.29,0,0,0-2.32-2.16h-5.84v-7.92h57.84v21.92h-8c-.16-1.2-.48-5.36-.64-6.32-.32-3.68-2.32-7.52-6.48-7.52H203.83v14.32h5.36c2.24,0,3.84-2.32,3.84-4.32v-4H221v25H213v-3.92c0-3.52-1.6-4.4-3.68-4.4h-5.52v14.48a2,2,0,0,0,2,1.76Z"/><path class="cls-1" d="M247.19,665.22a1.92,1.92,0,0,0,1.92-1.76V628.34a2.29,2.29,0,0,0-2.32-2.16H241v-7.92h57.84v21.92h-8c-.16-1.2-.48-5.36-.64-6.32-.32-3.68-2.32-7.52-6.48-7.52H266.39v14.32h5.36c2.24,0,3.84-2.32,3.84-4.32v-4h7.92v25h-7.92v-3.92c0-3.52-1.6-4.4-3.68-4.4h-5.52v16.24h17.92c5,0,7.12-5.44,7.12-9.68v-6.08h8.24v23.92H241v-8.16Z"/><path class="cls-1" d="M332.87,663.46V628.82c0-1-.24-2.64-2.72-2.64h-5.44v-7.92h24.08l24.56,36c.16.24,1,3,1.84,5l-.8-5.28V629.22c0-2.8-1.28-3-3.44-3h-4.16v-7.92h24.56v7.92h-5.44c-1.36,0-2.64.24-2.64,2.8v44.4h-16L343,637.86l-2.08-4.64,1,4.48v25.76a2,2,0,0,0,2,1.76h6.16v8.16H324.71v-8.16H331A1.92,1.92,0,0,0,332.87,663.46Z"/><path class="cls-1" d="M400.71,665.22a1.92,1.92,0,0,0,1.92-1.76V628.34a2.29,2.29,0,0,0-2.32-2.16h-5.84v-7.92h57.84v21.92h-8c-.16-1.2-.48-5.36-.64-6.32-.32-3.68-2.32-7.52-6.48-7.52H419.91v14.32h5.36c2.24,0,3.84-2.32,3.84-4.32v-4H437v25h-7.92v-3.92c0-3.52-1.6-4.4-3.68-4.4h-5.52v16.24h17.92c5,0,7.12-5.44,7.12-9.68v-6.08h8.24v23.92H394.47v-8.16Z"/><path class="cls-1" d="M466.15,665.22a1.92,1.92,0,0,0,1.92-1.76V628.34a2.29,2.29,0,0,0-2.32-2.16h-5.84v-7.92h57.84v21.92h-8c-.16-1.2-.48-5.36-.64-6.32-.32-3.68-2.32-7.52-6.48-7.52H485.35v14.32h5.36c2.24,0,3.84-2.32,3.84-4.32v-4h7.92v25h-7.92v-3.92c0-3.52-1.6-4.4-3.68-4.4h-5.52v16.24h17.92c5,0,7.12-5.44,7.12-9.68v-6.08h8.24v23.92H459.91v-8.16Z"/><path class="cls-1" d="M531.59,665.22a2.23,2.23,0,0,0,2.08-2v-34.4a2.74,2.74,0,0,0-2.32-2.64h-6v-7.92h37.92c16.8,0,28.16,12.08,28.16,27.76,0,17.2-11.44,27.36-28.24,27.36H525.35v-8.16Zm19.2,0h9.68c10.72,0,12.72-11.6,12.72-19.44,0-8.64-2-19.44-12.8-19.44h-9.6Z"/><path class="cls-1" d="M645,638.26H637c-.16,0-1-3.6-1.36-4.24-2.64-6.08-8.72-8.88-15-8.88-4,0-9.6,1.2-9.6,6a4,4,0,0,0,3.28,4.16l19,4.64c8.8,2.16,14.64,6.64,14.64,16.32,0,12.4-11.12,18.56-22.48,18.56-6.32,0-12.8-1.2-18.16-4.8-1.6,3.68-1.76,4.16-1.92,4.16h-7.68V652.74h8.16c1.36,9.28,9.76,13.68,18.16,13.68,3.92,0,10.4-1.2,10.4-6.4,0-2.72-2.32-3.92-4.8-4.56l-20.16-5c-7.6-1.92-12.4-7.68-12.4-15.6,0-12.32,11-18.08,22.24-18.08a33.65,33.65,0,0,1,15.92,4.08h.16l1.84-3.28H645Z"/><path class="cls-1" d="M103.75,747.46a2,2,0,0,0,2,1.76h6.16v8.16H78.55v-8.16h6.24a1.92,1.92,0,0,0,1.92-1.76V712.18a1.92,1.92,0,0,0-1.92-1.76H78.55v-8.16h37.6c10.24,0,20.4,4.64,20.4,16.08,0,9.28-7.2,16.08-16.48,16.08H103.83Zm.08-21.12H112c5,0,7.12-3.52,7.12-8.16,0-4.32-2.16-7.84-7-7.84h-8.32Z"/><path class="cls-1" d="M172.87,700.58c17.44,0,31,11.28,31,29.44s-13,29.12-31.12,29.12c-17.68,0-31.44-11.12-31.44-29.12C141.35,711.38,155,700.58,172.87,700.58Zm-.4,50.16c11.44,0,12.32-11.28,12.32-20.48s-.24-21.2-12.24-21.2c-11.44,0-12.32,12.08-12.32,21C160.23,738.58,161.35,750.74,172.47,750.74Z"/><path class="cls-1" d="M213.19,712.82c-.88-2.56-3.28-2.8-5.52-2.8h-2.16v-8h29.28v8c-2.4.08-4.8.16-4.8,2.16,0,1.28.8,3.12,8.32,26.08l.8,4.16.8-4.64,7-21.12c-1.6-5.52-1-6.64-8.56-6.64v-8h30v8c-3.76,0-6,.08-6,2.24,0,1.12,2.32,7.84,7.6,24.8l.88,5.44.8-4.16c7-21.52,8.24-25.12,8.24-26.16,0-1.76-1.68-2.16-3.84-2.16h-3.36v-8h24.48v8c-5,0-7,0-8.16,3.36l-14.64,44H260l-8.08-25-.64-4.08-.72,4.08-8,25H228.31Z"/><path class="cls-1" d="M304.87,749.22a1.92,1.92,0,0,0,1.92-1.76V712.34a2.29,2.29,0,0,0-2.32-2.16h-5.84v-7.92h57.84v21.92h-8c-.16-1.2-.48-5.36-.64-6.32-.32-3.68-2.32-7.52-6.48-7.52H324.07v14.32h5.36c2.24,0,3.84-2.32,3.84-4.32v-4h7.92v25h-7.92v-3.92c0-3.52-1.6-4.4-3.68-4.4h-5.52v16.24H342c5,0,7.12-5.44,7.12-9.68v-6.08h8.24v23.92H298.63v-8.16Z"/><path class="cls-1" d="M389.35,747.46a2,2,0,0,0,2,1.76h6.16v8.16H364.07v-8.16h6.24a1.92,1.92,0,0,0,1.92-1.76V712.1a1.92,1.92,0,0,0-1.92-1.76h-6.24v-8.08h39.28c9.6,0,19.44,2.48,19.44,13.76,0,10-7.92,12.72-16.56,13.36,6.48,1.36,11.12,2.88,11.92,10.24.4,3.36.08,9.6,2.16,9.6,1,0,1.76-.48,1.76-2.16v-7.28h7.52v4.32c0,10.32-3.28,14.48-14,14.48-6.72,0-12.08-2.72-13-9.68l-1.28-10.32c-.24-2.08-.64-5.12-5.44-5.12h-6.56Zm0-22.32h5.52c5.36,0,9.92-.8,9.92-7.76,0-4.64-2.48-7-6.64-7h-8.8Z"/></svg>